<svg width="20" height="19" viewBox="0 0 20 19" fill="none" xmlns="http://www.w3.org/2000/svg">
<path d="M18.3195 8.92466C18.3226 10.1345 18.04 11.3281 17.4945 12.408C16.8477 13.7021 15.8534 14.7906 14.623 15.5515C13.3925 16.3124 11.9745 16.7158 10.5278 16.7163C9.31793 16.7195 8.12441 16.4368 7.04447 15.8913L1.81947 17.633L3.56114 12.408C3.01566 11.3281 2.73299 10.1345 2.73614 8.92466C2.7367 7.47794 3.14003 6.05994 3.90097 4.8295C4.6619 3.59905 5.75037 2.60476 7.04447 1.95799C8.12441 1.41251 9.31793 1.12984 10.5278 1.13299H10.9861C12.8968 1.2384 14.7014 2.04486 16.0545 3.39795C17.4076 4.75103 18.2141 6.55567 18.3195 8.46632V8.92466Z" stroke="#8F8F8F" stroke-width="2" stroke-linecap="round" stroke-linejoin="round"/>
</svg>
