<?xml version="1.0" encoding="utf-8"?>
<!-- Generator: Adobe Illustrator 27.2.0, SVG Export Plug-In . SVG Version: 6.00 Build 0)  -->
<svg version="1.1" id="Layer_1" xmlns="http://www.w3.org/2000/svg" xmlns:xlink="http://www.w3.org/1999/xlink" x="0px" y="0px"
	 viewBox="0 0 1000 334.1" style="enable-background:new 0 0 1000 334.1;" xml:space="preserve">
<style type="text/css">
	.st0{fill:url(#SVGID_1_);}
	.st1{fill:#FFFFFF;}
</style>
<g>
	<linearGradient id="SVGID_1_" gradientUnits="userSpaceOnUse" x1="59.1565" y1="-261.5758" x2="764.8027" y2="444.0704">
		<stop  offset="0" style="stop-color:#9181F4"/>
		<stop  offset="1" style="stop-color:#5038ED"/>
	</linearGradient>
	<path class="st0" d="M925.2,0H74.8C34.2,0,1,33.2,1,73.8v71.3v71.3v85.4c0,27.4,32,42.3,53,24.7l42.4-35.6l-0.4-0.7h829.2
		c40.6,0,73.8-33.2,73.8-73.8V73.8C999,33.2,965.8,0,925.2,0z"/>
	<g>
		<polygon class="st1" points="125.5,211.7 170.4,211.7 170.4,169.1 225.9,169.1 225.9,135.2 170.4,135.2 170.4,112.3 233.7,112.3 
			233.7,78.5 125.5,78.5 		"/>
		<path class="st1" d="M374.6,95.1c-6.7-6.3-14.7-11.1-23.8-14.6c-9.1-3.4-19.2-5.1-30.1-5.1c-10.8,0-20.8,1.7-30,5.1
			c-9.2,3.4-17.2,8.3-23.9,14.6c-6.7,6.3-12,13.6-15.7,22.1c-3.7,8.4-5.6,17.7-5.6,27.9c0,10,1.9,19.3,5.6,27.8
			c3.7,8.5,9,15.9,15.7,22.2c6.7,6.3,14.7,11.1,23.9,14.6c9.2,3.4,19.3,5.1,30.2,5.1c10.8,0,20.7-1.7,29.9-5.1
			c9.1-3.4,17.1-8.3,23.8-14.6c6.7-6.3,12-13.7,15.7-22.2c3.7-8.5,5.6-17.8,5.6-27.8c0-10.1-1.9-19.4-5.6-27.9
			C386.5,108.8,381.3,101.4,374.6,95.1z M348.3,159.1c-1.5,4.1-3.6,7.6-6.4,10.5c-2.7,2.9-5.9,5-9.5,6.6c-3.6,1.5-7.5,2.3-11.7,2.3
			c-4.2,0-8.1-0.8-11.7-2.3s-6.8-3.7-9.5-6.6c-2.7-2.9-4.9-6.3-6.4-10.5c-1.5-4.1-2.3-8.8-2.3-14c0-5.2,0.8-9.9,2.3-14
			c1.5-4.1,3.6-7.6,6.4-10.5c2.7-2.9,5.9-5,9.5-6.6c3.6-1.5,7.5-2.3,11.7-2.3c4.2,0,8.1,0.8,11.7,2.3c3.6,1.5,6.8,3.7,9.5,6.6
			c2.7,2.9,4.9,6.3,6.4,10.5c1.5,4.1,2.3,8.8,2.3,14C350.6,150.3,349.8,154.9,348.3,159.1z"/>
		<path class="st1" d="M533.5,155.3c4.9-7.4,7.4-16.3,7.4-26.5c0-10.3-2.5-19.2-7.4-26.7c-4.9-7.5-12-13.4-21-17.4
			c-9.1-4.1-19.8-6.1-32.3-6.1h-64.1v133.2H461v-33.5h12.2l22.6,33.5h48l-28-41C523.3,166.9,529.2,161.7,533.5,155.3z M491.2,117.3
			c3,2.8,4.5,6.6,4.5,11.4c0,4.8-1.5,8.6-4.5,11.4c-3,2.8-7.6,4.2-13.8,4.2H461v-31.2h16.4C483.6,113.1,488.2,114.5,491.2,117.3z"/>
		<path class="st1" d="M646.2,150.4c0,10.2-1.8,17.4-5.4,21.6c-3.6,4.3-8.6,6.4-14.9,6.4c-6.2,0-11.2-2.1-14.8-6.4
			c-3.7-4.2-5.5-11.4-5.5-21.6V78.5h-44.9v73.3c0,19.9,5.7,35.4,17.1,46.4c11.4,11,27.3,16.6,47.8,16.6c20.4,0,36.4-5.5,47.8-16.6
			c11.4-11,17.1-26.5,17.1-46.4V78.5h-44.2V150.4z"/>
		<polygon class="st1" points="874.5,211.7 874.2,78.5 837.2,78.5 795,149.4 751.6,78.5 714.7,78.5 714.7,211.7 755.6,211.7 
			755.6,153 784.5,199.7 804.3,199.7 833.3,150.9 833.6,211.7 		"/>
	</g>
</g>
<g>
</g>
<g>
</g>
<g>
</g>
<g>
</g>
<g>
</g>
</svg>
