<?xml version="1.0" encoding="utf-8"?>
<!-- Generator: Adobe Illustrator 27.2.0, SVG Export Plug-In . SVG Version: 6.00 Build 0)  -->
<svg version="1.1" id="Layer_1" xmlns="http://www.w3.org/2000/svg" xmlns:xlink="http://www.w3.org/1999/xlink" x="0px" y="0px"
	 viewBox="0 0 256 256" style="enable-background:new 0 0 256 256;" xml:space="preserve">
<style type="text/css">
	.st0{fill:#FFFFFF;}
</style>
<g transform="translate(1.4065934065934016 1.4065934065934016) scale(2.81 2.81)">
	<path class="st0" d="M64.7,90H25.3c-4.7,0-8.6-3.7-8.9-8.4l-3.9-67.1c0-0.8,0.2-1.6,0.8-2.2c0.6-0.6,1.4-0.9,2.2-0.9h59
		c0.8,0,1.6,0.3,2.2,0.9c0.6,0.6,0.9,1.4,0.8,2.2l-3.9,67.1C73.3,86.3,69.4,90,64.7,90z M18.7,17.4l3.7,63.9
		c0.1,1.5,1.3,2.7,2.9,2.7h39.4c1.5,0,2.8-1.2,2.9-2.7l3.7-63.9L18.7,17.4L18.7,17.4z"/>
	<path class="st0" d="M80.7,17.4H9.3c-1.7,0-3-1.3-3-3s1.3-3,3-3h71.4c1.7,0,3,1.3,3,3S82.4,17.4,80.7,17.4z"/>
	<path class="st0" d="M58.7,17.4H31.3c-1.7,0-3-1.3-3-3V8.8c0-4.8,3.9-8.8,8.8-8.8h15.9c4.8,0,8.8,3.9,8.8,8.8v5.6
		C61.7,16,60.4,17.4,58.7,17.4z M34.3,11.4h21.5V8.8c0-1.5-1.2-2.8-2.8-2.8H37.1c-1.5,0-2.8,1.3-2.8,2.8L34.3,11.4L34.3,11.4z"/>
	<path class="st0" d="M58.3,75c-0.1,0-0.1,0-0.2,0c-1.7-0.1-2.9-1.5-2.8-3.2l2.5-42.2c0.1-1.7,1.5-2.9,3.2-2.8
		c1.7,0.1,2.9,1.5,2.8,3.2l-2.5,42.2C61.2,73.8,59.9,75,58.3,75z"/>
	<path class="st0" d="M31.7,75c-1.6,0-2.9-1.2-3-2.8l-2.5-42.2c-0.1-1.7,1.2-3.1,2.8-3.2c1.6-0.1,3.1,1.2,3.2,2.8l2.5,42.2
		c0.1,1.7-1.2,3.1-2.8,3.2C31.8,75,31.7,75,31.7,75z"/>
	<path class="st0" d="M45,75c-1.7,0-3-1.3-3-3V29.7c0-1.7,1.3-3,3-3s3,1.3,3,3V72C48,73.6,46.7,75,45,75z"/>
</g>
</svg>
