<?xml version="1.0" encoding="utf-8"?>
<!-- Generator: Adobe Illustrator 27.2.0, SVG Export Plug-In . SVG Version: 6.00 Build 0)  -->
<svg version="1.1" id="Layer_1" xmlns="http://www.w3.org/2000/svg" xmlns:xlink="http://www.w3.org/1999/xlink" x="0px" y="0px"
	 viewBox="0 0 290.2 334.1" style="enable-background:new 0 0 290.2 334.1;" xml:space="preserve">
<style type="text/css">
	.st0{fill:url(#SVGID_1_);}
	.st1{fill:#FFFFFF;}
</style>
<linearGradient id="SVGID_1_" gradientUnits="userSpaceOnUse" x1="30.0004" y1="63.8883" x2="235.2028" y2="269.0907">
	<stop  offset="0" style="stop-color:#9181F4"/>
	<stop  offset="1" style="stop-color:#5038ED"/>
</linearGradient>
<path class="st0" d="M216.6,0h-143C33,0,0,32.9,0,73.6v143c0,1.9,0.1,3.7,0.2,5.5L0,221.9v79.3c0,27.9,32.6,43.1,54,25.2l42.4-35.5
	l-1-0.7h121.2c40.7,0,73.6-33,73.6-73.6v-143C290.2,32.9,257.2,0,216.6,0z"/>
<polygon class="st1" points="91,211.7 135.9,211.7 135.9,169.1 191.4,169.1 191.4,135.2 135.9,135.2 135.9,112.3 199.2,112.3 
	199.2,78.5 91,78.5 "/>
</svg>
