<?xml version="1.0" encoding="utf-8"?>
<!-- Generator: Adobe Illustrator 27.2.0, SVG Export Plug-In . SVG Version: 6.00 Build 0)  -->
<svg version="1.1" id="Layer_1" xmlns="http://www.w3.org/2000/svg" xmlns:xlink="http://www.w3.org/1999/xlink" x="0px" y="0px"
	 viewBox="0 0 1000 1000" style="enable-background:new 0 0 1000 1000;" xml:space="preserve">
<style type="text/css">
	.st0{fill:#FFFFFF;}
</style>
<path class="st0" d="M606.1,500l367.8-367.8c29.3-29.3,29.3-76.8,0-106.1s-76.8-29.3-106.1,0L500,393.9L133.6,27.5
	c-29.3-29.3-76.8-29.3-106.1,0s-29.3,76.8,0,106.1L393.9,500L26.2,867.8c-29.3,29.3-29.3,76.8,0,106.1c14.6,14.6,33.8,22,53,22
	s38.4-7.3,53-22L500,606.1l366.5,366.5c14.6,14.6,33.8,22,53,22s38.4-7.3,53-22c29.3-29.3,29.3-76.8,0-106.1L606.1,500z"/>
</svg>
